<svg width="480" height="200" viewBox="0 0 480 200" xmlns="http://www.w3.org/2000/svg" role="img" aria-label="Commitchi, a owl that is 기분 좋음, fullness 89%">
  <title>Commitchi — 기분 좋음</title>
  <rect x="0.5" y="0.5" width="479" height="199" rx="16" fill="#1b1a2e" stroke="#2e2c47"/>
  <circle cx="200" cy="28" r="1.6" fill="#4a4570"><animate attributeName="opacity" values="0.3;1;0.3" dur="4s" repeatCount="indefinite"/></circle><circle cx="430" cy="40" r="1.6" fill="#4a4570"><animate attributeName="opacity" values="0.3;1;0.3" dur="3s" repeatCount="indefinite"/></circle><circle cx="360" cy="24" r="1.6" fill="#4a4570"><animate attributeName="opacity" values="0.3;1;0.3" dur="2s" repeatCount="indefinite"/></circle><circle cx="250" cy="160" r="1.6" fill="#4a4570"><animate attributeName="opacity" values="0.3;1;0.3" dur="3s" repeatCount="indefinite"/></circle><circle cx="455" cy="120" r="1.6" fill="#4a4570"><animate attributeName="opacity" values="0.3;1;0.3" dur="4s" repeatCount="indefinite"/></circle><circle cx="185" cy="95" r="1.6" fill="#4a4570"><animate attributeName="opacity" values="0.3;1;0.3" dur="4s" repeatCount="indefinite"/></circle>
  
    <g transform="translate(96,104)">
      <animateTransform attributeName="transform" type="translate"
        values="96,104; 96,98; 96,104" dur="3s" repeatCount="indefinite" calcMode="spline"
        keySplines="0.4 0 0.6 1; 0.4 0 0.6 1" keyTimes="0;0.5;1"/>
      <ellipse cx="-12" cy="54" rx="8" ry="4" fill="#EF9F27"/>
      <ellipse cx="12" cy="54" rx="8" ry="4" fill="#EF9F27"/>
      <path d="M-34,-30 L-22,-52 L-12,-28 Z" fill="#534AB7"/>
      <path d="M34,-30 L22,-52 L12,-28 Z" fill="#534AB7"/>
      <ellipse cx="0" cy="8" rx="42" ry="46" fill="#7F77DD"/>
      <ellipse cx="-38" cy="10" rx="12" ry="30" fill="#534AB7"/>
      <ellipse cx="38" cy="10" rx="12" ry="30" fill="#534AB7"/>
      <ellipse cx="0" cy="18" rx="25" ry="30" fill="#AFA9EC"/>
      
      <circle cx="-16" cy="-8" r="15" fill="#ffffff"/>
      <circle cx="16" cy="-8" r="15" fill="#ffffff"/>
      <circle cx="-15" cy="-7" r="6" fill="#26215C"/>
      <circle cx="17" cy="-7" r="6" fill="#26215C"/>
      <circle cx="-12" cy="-9" r="2" fill="#ffffff"/>
      <circle cx="20" cy="-9" r="2" fill="#ffffff"/>
      
      <rect x="-31" y="-23" width="30" height="22" rx="11" fill="#7F77DD" opacity="0">
        <animate attributeName="opacity" values="0;0;1;0" keyTimes="0;0.93;0.965;1" dur="5s" repeatCount="indefinite"/>
      </rect>
      <rect x="1" y="-23" width="30" height="22" rx="11" fill="#7F77DD" opacity="0">
        <animate attributeName="opacity" values="0;0;1;0" keyTimes="0;0.93;0.965;1" dur="5s" repeatCount="indefinite"/>
      </rect>
      <path d="M0,2 L-7,-5 L7,-5 Z" fill="#EF9F27"/>
      
    </g>
  <text x="172" y="46" fill="#ECEAFB" font-family="'Segoe UI',system-ui,sans-serif" font-size="24" font-weight="600">Commitchi</text>
  <text x="172" y="68" fill="#A9A3D6" font-family="'Segoe UI',system-ui,sans-serif" font-size="13">Night Owl · 0일째</text>
  <text x="172" y="104" fill="#A9A3D6" font-family="'Segoe UI',system-ui,sans-serif" font-size="13">기분</text>
  <text x="172" y="126" fill="#ECEAFB" font-family="'Segoe UI',system-ui,sans-serif" font-size="17" font-weight="600">기분 좋음</text>
  <text x="172" y="158" fill="#A9A3D6" font-family="'Segoe UI',system-ui,sans-serif" font-size="13">포만감</text>
  <rect x="172" y="168" width="270" height="12" rx="6" fill="#2e2c47"/>
  <rect x="172" y="168" width="240" height="12" rx="6" fill="#639922"/>
  <text x="448" y="178" fill="#ECEAFB" font-family="'Segoe UI',system-ui,sans-serif" font-size="12" text-anchor="end">89%</text>
</svg>
